Coordinates
version=1
nRows=11
nColumns=42
inDegrees=yes

Units are S.I. units (second, meters, Newtons, ...)
If the header above contains a line with 'inDegrees', this indicates whether rotational values are in degrees (yes) or radians (no).

endheader
time	pelvis_tilt	pelvis_list	pelvis_rotation	pelvis_tx	pelvis_ty	pelvis_tz	hip_flexion_r	hip_adduction_r	hip_rotation_r	knee_angle_r	knee_adduction_r	knee_angle_r_beta	ankle_angle_r	subtalar_angle_r	mtp_angle_r	hip_flexion_l	hip_adduction_l	hip_rotation_l	knee_angle_l	knee_adduction_l	knee_angle_l_beta	ankle_angle_l	subtalar_angle_l	mtp_angle_l	lumbar_extension	lumbar_bending	lumbar_rotation	arm_flex_r	arm_add_r	arm_rot_r	elbow_flex_r	pro_sup_r	wrist_flex_r	wrist_dev_r	arm_flex_l	arm_add_l	arm_rot_l	elbow_flex_l	pro_sup_l	wrist_flex_l	wrist_dev_l
      2.83000000	      2.70890108	      6.31347332	      5.82771144	      0.08262187	      0.99594125	      0.31303473	     10.31898276	     -6.10775369	    -28.20810666	     11.89638016	     -3.04489610	      0.20763100	      1.73730649	     17.48078965	     -7.51454679	    -14.22012426	      2.03432815	     -2.42179371	     23.01530700	      1.34034027	      0.40169289	      1.67900121	      8.27422052	     -7.51454679	    -21.90130888	     -6.94465734	     -8.88184643	     -8.90794791	    -11.15089590	     21.23589591	     37.82657809	     90.00000001	      0.00000000	      0.00000000	     14.60418054	    -21.53790322	     13.06777865	     48.47117068	     90.00000001	      0.00000000	      0.00000000
      2.84000000	      2.82412664	      6.29396541	      5.84372232	      0.08967797	      0.99725303	      0.31477283	      9.48887657	     -5.84197884	    -28.61501036	     11.36721342	     -3.04876529	      0.19839530	      1.80921735	     18.19278730	     -7.51411750	    -13.18229960	      1.36920456	     -2.07598561	     25.77008371	      2.13843897	      0.44977281	      0.71263729	      7.04057193	     -7.51411750	    -22.06043876	     -6.96937398	     -8.70323712	     -8.34502799	    -11.23390834	     21.34019821	     38.00391457	     90.00000001	      0.00000000	      0.00000000	     14.10482311	    -21.58624244	     13.05537399	     48.36687792	     90.00000001	      0.00000000	      0.00000000
      2.85000000	      3.01653093	      6.48215415	      5.86100684	      0.09664051	      0.99863411	      0.31611351	      8.50822584	     -5.91981246	    -28.76332509	     10.88583207	     -2.77061083	      0.18999361	      2.17836735	     18.54590529	     -7.51385400	    -12.19467505	      1.04639913	     -1.78092970	     28.44972206	      2.66167814	      0.49654132	     -0.36037830	      6.26615323	     -7.51385400	    -22.32595852	     -7.17546925	     -8.59065296	     -7.76915130	    -11.33086302	     21.34600292	     38.26526737	     90.00000001	      0.00000000	      0.00000000	     13.60833867	    -21.62720863	     12.99357274	     48.26477213	     90.00000001	      0.00000000	      0.00000000
      2.86000000	      3.13912769	      6.52388303	      5.87687678	      0.10346723	      0.99970753	      0.31759907	      7.65784694	     -5.76975385	    -28.94343005	     10.38411295	     -2.63127307	      0.18123696	      2.40116889	     18.92458031	     -7.51356469	    -10.99161048	      0.50992555	     -1.50443250	     31.26599341	      3.28274901	      0.54569453	     -1.22456091	      5.25670567	     -7.51356469	    -22.49879130	     -7.25125276	     -8.39802597	     -7.17508708	    -11.47426128	     21.43558890	     38.52076948	     90.00000001	      0.00000000	      0.00000000	     13.06177073	    -21.65323499	     12.81456062	     48.23160153	     90.00000001	      0.00000000	      0.00000000
      2.87000000	      3.40944441	      6.76679375	      5.69222332	      0.11011112	      1.00095421	      0.31921277	      6.74749719	     -5.90518918	    -28.83832183	     10.11912816	     -2.36592329	      0.17661210	      2.66065982	     19.16017187	     -7.51337148	    -10.03787112	      0.23348829	     -1.19150478	     33.74397917	      3.95502677	      0.58894354	     -1.86070089	      4.72174484	     -7.51337148	    -22.86217692	     -7.58697783	     -8.06902646	     -6.51956197	    -11.60820170	     21.44793820	     38.79718408	     90.00000001	      0.00000000	      0.00000000	     12.61620811	    -21.70686082	     12.62457324	     48.17534328	     90.00000001	      0.00000000	      0.00000000
      2.88000000	      3.34138109	      6.50298858	      5.72732987	      0.11653096	      1.00139753	      0.32083535	      6.20211773	     -5.32212592	    -29.06865875	      9.54481705	     -2.46297229	      0.16658848	      2.72373086	     19.55629575	     -7.51298603	     -8.35842738	     -0.67366907	     -0.89356463	     36.69600825	      4.67175668	      0.64046617	     -2.37189554	      3.20553461	     -7.51298603	    -22.77432303	     -7.38308010	     -7.79875175	     -5.81605579	    -11.86496774	     21.77435803	     39.05209467	     90.00000001	      0.00000000	      0.00000000	     11.92929222	    -21.65295271	     12.08162290	     48.22761600	     90.00000001	      0.00000000	      0.00000000
      2.89000000	      3.42739995	      6.50084468	      5.63382594	      0.12292323	      1.00206883	      0.32243093	      5.51468675	     -5.12652339	    -29.06718667	      9.16455938	     -2.34864227	      0.15995174	      2.95048938	     19.82105873	     -7.51257450	     -6.97813590	     -1.20691509	     -0.58514750	     39.18290913	      5.25935147	      0.68387077	     -2.71297883	      2.14052752	     -7.51257450	    -22.89522094	     -7.48027651	     -7.47561564	     -5.10350618	    -12.08042827	     22.01616717	     39.29435057	     90.00000001	      0.00000000	      0.00000000	     11.33157203	    -21.63568488	     11.56308927	     48.22758198	     90.00000001	      0.00000000	      0.00000000
      2.90000000	      3.67983294	      6.67513737	      5.49025489	      0.12928082	      1.00300686	      0.32371566	      4.60321585	     -5.22424130	    -28.91148350	      8.85259719	     -2.00928194	      0.15450697	      3.31029323	     20.02515291	     -7.51238252	     -5.83859148	     -1.43759390	     -0.46123233	     41.30692072	      5.54540774	      0.72094177	     -2.85699900	      1.51474583	     -7.51238252	    -23.22247274	     -7.72249692	     -7.13815506	     -4.35108803	    -12.27791537	     22.02213832	     39.52259389	     90.00000001	      0.00000000	      0.00000000	     10.81445933	    -21.64680678	     11.28869168	     48.19627839	     90.00000001	      0.00000000	      0.00000000
      2.91000000	      3.64806634	      6.50010099	      5.36462820	      0.13535816	      1.00327675	      0.32556370	      4.12573891	     -4.71806853	    -28.95497280	      8.38627484	     -2.15689022	      0.14636811	      3.40243754	     20.26027920	     -7.51205779	     -4.20701746	     -2.18967809	     -0.30137079	     43.51675386	      6.09514521	      0.75951063	     -2.83304910	      0.31175596	     -7.51205779	    -23.19493996	     -7.70353973	     -6.71550967	     -3.54735051	    -12.51847169	     22.36323432	     39.70202957	     90.00000001	      0.00000000	      0.00000000	     10.16193999	    -21.60342786	     10.51216946	     48.24440789	     90.00000001	      0.00000000	      0.00000000
      2.92000000	      3.96206823	      6.81318503	      4.99355250	      0.14162938	      1.00424069	      0.32721353	      3.31601680	     -4.94729804	    -28.86893114	      8.29798370	     -1.98246082	      0.14482714	      3.61303140	     20.27955342	     -7.51192895	     -3.26324056	     -2.28137098	     -0.32882060	     44.89095259	      6.44593045	      0.78349493	     -2.69692470	      0.03287042	     -7.51192895	    -23.57310279	     -8.20941631	     -6.15642230	     -2.74898325	    -12.69939588	     22.33313754	     39.86213013	     90.00000001	      0.00000000	      0.00000000	      9.73093604	    -21.63508212	     10.29098836	     48.14453450	     90.00000001	      0.00000000	      0.00000000
      2.93000000	      3.83926677	      6.49637733	      4.97200060	      0.14744646	      1.00423394	      0.32860838	      2.88900132	     -4.31954813	    -28.75367822	      7.73552268	     -2.05586662	      0.13501034	      3.76318408	     20.64880074	     -7.51158055	     -1.40252943	     -3.09841450	     -0.32994370	     46.76770660	      6.65990078	      0.81625046	     -2.36243046	     -1.39147805	     -7.51158055	    -23.43629168	     -7.97092849	     -5.84723708	     -1.79672645	    -13.01900920	     22.85325065	     39.91078763	     90.00000001	      0.00000000	      0.00000000	      8.95527935	    -21.45943199	      9.17482294	     48.17875846	     90.00000001	      0.00000000	      0.00000000
